<svg width="104" height="104" viewBox="0 0 104 104" fill="none" xmlns="http://www.w3.org/2000/svg">
<rect width="104" height="104" rx="16" fill="black"/>
<path d="M31.184 46.008C31.952 44.76 33.056 43.752 34.496 42.984C35.936 42.216 37.584 41.832 39.44 41.832C41.648 41.832 43.648 42.392 45.44 43.512C47.232 44.632 48.64 46.232 49.664 48.312C50.72 50.392 51.248 52.808 51.248 55.56C51.248 58.312 50.72 60.744 49.664 62.856C48.64 64.936 47.232 66.552 45.44 67.704C43.648 68.824 41.648 69.384 39.44 69.384C37.552 69.384 35.904 69.016 34.496 68.28C33.088 67.512 31.984 66.504 31.184 65.256V69H22.976V33.48H31.184V46.008ZM42.896 55.56C42.896 53.512 42.32 51.912 41.168 50.76C40.048 49.576 38.656 48.984 36.992 48.984C35.36 48.984 33.968 49.576 32.816 50.76C31.696 51.944 31.136 53.56 31.136 55.608C31.136 57.656 31.696 59.272 32.816 60.456C33.968 61.64 35.36 62.232 36.992 62.232C38.624 62.232 40.016 61.64 41.168 60.456C42.32 59.24 42.896 57.608 42.896 55.56ZM67.7461 69.384C65.1221 69.384 62.7541 68.824 60.6421 67.704C58.5621 66.584 56.9141 64.984 55.6981 62.904C54.5141 60.824 53.9221 58.392 53.9221 55.608C53.9221 52.856 54.5301 50.44 55.7461 48.36C56.9621 46.248 58.6261 44.632 60.7381 43.512C62.8501 42.392 65.2181 41.832 67.8421 41.832C70.4661 41.832 72.8341 42.392 74.9461 43.512C77.0581 44.632 78.7221 46.248 79.9381 48.36C81.1541 50.44 81.7621 52.856 81.7621 55.608C81.7621 58.36 81.1381 60.792 79.8901 62.904C78.6741 64.984 76.9941 66.584 74.8501 67.704C72.7381 68.824 70.3701 69.384 67.7461 69.384ZM67.7461 62.28C69.3141 62.28 70.6421 61.704 71.7301 60.552C72.8501 59.4 73.4101 57.752 73.4101 55.608C73.4101 53.464 72.8661 51.816 71.7781 50.664C70.7221 49.512 69.4101 48.936 67.8421 48.936C66.2421 48.936 64.9141 49.512 63.8581 50.664C62.8021 51.784 62.2741 53.432 62.2741 55.608C62.2741 57.752 62.7861 59.4 63.8101 60.552C64.8661 61.704 66.1781 62.28 67.7461 62.28Z" fill="white"/>
</svg>
