<svg width="290" height="104" viewBox="0 0 290 104" fill="none" xmlns="http://www.w3.org/2000/svg">
<rect width="290" height="104" rx="16" fill="black"/>
<path d="M27.184 46.008C27.952 44.76 29.056 43.752 30.496 42.984C31.936 42.216 33.584 41.832 35.44 41.832C37.648 41.832 39.648 42.392 41.44 43.512C43.232 44.632 44.64 46.232 45.664 48.312C46.72 50.392 47.248 52.808 47.248 55.56C47.248 58.312 46.72 60.744 45.664 62.856C44.64 64.936 43.232 66.552 41.44 67.704C39.648 68.824 37.648 69.384 35.44 69.384C33.552 69.384 31.904 69.016 30.496 68.28C29.088 67.512 27.984 66.504 27.184 65.256V69H18.976V33.48H27.184V46.008ZM38.896 55.56C38.896 53.512 38.32 51.912 37.168 50.76C36.048 49.576 34.656 48.984 32.992 48.984C31.36 48.984 29.968 49.576 28.816 50.76C27.696 51.944 27.136 53.56 27.136 55.608C27.136 57.656 27.696 59.272 28.816 60.456C29.968 61.64 31.36 62.232 32.992 62.232C34.624 62.232 36.016 61.64 37.168 60.456C38.32 59.24 38.896 57.608 38.896 55.56ZM63.7461 69.384C61.1221 69.384 58.7541 68.824 56.6421 67.704C54.5621 66.584 52.9141 64.984 51.6981 62.904C50.5141 60.824 49.9221 58.392 49.9221 55.608C49.9221 52.856 50.5301 50.44 51.7461 48.36C52.9621 46.248 54.6261 44.632 56.7381 43.512C58.8501 42.392 61.2181 41.832 63.8421 41.832C66.4661 41.832 68.8341 42.392 70.9461 43.512C73.0581 44.632 74.7221 46.248 75.9381 48.36C77.1541 50.44 77.7621 52.856 77.7621 55.608C77.7621 58.36 77.1381 60.792 75.8901 62.904C74.6741 64.984 72.9941 66.584 70.8501 67.704C68.7381 68.824 66.3701 69.384 63.7461 69.384ZM63.7461 62.28C65.3141 62.28 66.6421 61.704 67.7301 60.552C68.8501 59.4 69.4101 57.752 69.4101 55.608C69.4101 53.464 68.8661 51.816 67.7781 50.664C66.7221 49.512 65.4101 48.936 63.8421 48.936C62.2421 48.936 60.9141 49.512 59.8581 50.664C58.8021 51.784 58.2741 53.432 58.2741 55.608C58.2741 57.752 58.7861 59.4 59.8101 60.552C60.8661 61.704 62.1781 62.28 63.7461 62.28ZM107.365 55.176C107.365 55.944 107.317 56.744 107.221 57.576H88.6446C88.7726 59.24 89.3006 60.52 90.2286 61.416C91.1886 62.28 92.3566 62.712 93.7326 62.712C95.7806 62.712 97.2046 61.848 98.0046 60.12H106.741C106.293 61.88 105.477 63.464 104.293 64.872C103.141 66.28 101.685 67.384 99.9246 68.184C98.1646 68.984 96.1966 69.384 94.0206 69.384C91.3966 69.384 89.0606 68.824 87.0126 67.704C84.9646 66.584 83.3646 64.984 82.2126 62.904C81.0606 60.824 80.4846 58.392 80.4846 55.608C80.4846 52.824 81.0446 50.392 82.1646 48.312C83.3166 46.232 84.9166 44.632 86.9646 43.512C89.0126 42.392 91.3646 41.832 94.0206 41.832C96.6126 41.832 98.9166 42.376 100.933 43.464C102.949 44.552 104.517 46.104 105.637 48.12C106.789 50.136 107.365 52.488 107.365 55.176ZM98.9646 53.016C98.9646 51.608 98.4846 50.488 97.5246 49.656C96.5646 48.824 95.3646 48.408 93.9246 48.408C92.5486 48.408 91.3806 48.808 90.4206 49.608C89.4926 50.408 88.9166 51.544 88.6926 53.016H98.9646ZM122.591 69.384C120.255 69.384 118.175 68.984 116.351 68.184C114.527 67.384 113.087 66.296 112.031 64.92C110.975 63.512 110.383 61.944 110.255 60.216H118.367C118.463 61.144 118.895 61.896 119.663 62.472C120.431 63.048 121.375 63.336 122.495 63.336C123.519 63.336 124.303 63.144 124.847 62.76C125.423 62.344 125.711 61.816 125.711 61.176C125.711 60.408 125.311 59.848 124.511 59.496C123.711 59.112 122.415 58.696 120.623 58.248C118.703 57.8 117.103 57.336 115.823 56.856C114.543 56.344 113.439 55.56 112.511 54.504C111.583 53.416 111.119 51.96 111.119 50.136C111.119 48.6 111.535 47.208 112.367 45.96C113.231 44.68 114.479 43.672 116.111 42.936C117.775 42.2 119.743 41.832 122.015 41.832C125.375 41.832 128.015 42.664 129.935 44.328C131.887 45.992 133.007 48.2 133.295 50.952H125.711C125.583 50.024 125.167 49.288 124.463 48.744C123.791 48.2 122.895 47.928 121.775 47.928C120.815 47.928 120.079 48.12 119.567 48.504C119.055 48.856 118.799 49.352 118.799 49.992C118.799 50.76 119.199 51.336 119.999 51.72C120.831 52.104 122.111 52.488 123.839 52.872C125.823 53.384 127.439 53.896 128.687 54.408C129.935 54.888 131.023 55.688 131.951 56.808C132.911 57.896 133.407 59.368 133.439 61.224C133.439 62.792 132.991 64.2 132.095 65.448C131.231 66.664 129.967 67.624 128.303 68.328C126.671 69.032 124.767 69.384 122.591 69.384ZM153.388 62.04V69H149.212C146.236 69 143.916 68.28 142.252 66.84C140.588 65.368 139.756 62.984 139.756 59.688V49.032H136.492V42.216H139.756V35.688H147.964V42.216H153.34V49.032H147.964V59.784C147.964 60.584 148.156 61.16 148.54 61.512C148.924 61.864 149.564 62.04 150.46 62.04H153.388ZM184.408 42.216V69H176.2V65.352C175.368 66.536 174.232 67.496 172.792 68.232C171.384 68.936 169.816 69.288 168.088 69.288C166.04 69.288 164.232 68.84 162.664 67.944C161.096 67.016 159.88 65.688 159.016 63.96C158.152 62.232 157.72 60.2 157.72 57.864V42.216H165.88V56.76C165.88 58.552 166.344 59.944 167.272 60.936C168.2 61.928 169.448 62.424 171.016 62.424C172.616 62.424 173.88 61.928 174.808 60.936C175.736 59.944 176.2 58.552 176.2 56.76V42.216H184.408ZM188.672 55.56C188.672 52.808 189.184 50.392 190.208 48.312C191.264 46.232 192.688 44.632 194.48 43.512C196.272 42.392 198.272 41.832 200.48 41.832C202.24 41.832 203.84 42.2 205.28 42.936C206.752 43.672 207.904 44.664 208.736 45.912V33.48H216.944V69H208.736V65.16C207.968 66.44 206.864 67.464 205.424 68.232C204.016 69 202.368 69.384 200.48 69.384C198.272 69.384 196.272 68.824 194.48 67.704C192.688 66.552 191.264 64.936 190.208 62.856C189.184 60.744 188.672 58.312 188.672 55.56ZM208.736 55.608C208.736 53.56 208.16 51.944 207.008 50.76C205.888 49.576 204.512 48.984 202.88 48.984C201.248 48.984 199.856 49.576 198.704 50.76C197.584 51.912 197.024 53.512 197.024 55.56C197.024 57.608 197.584 59.24 198.704 60.456C199.856 61.64 201.248 62.232 202.88 62.232C204.512 62.232 205.888 61.64 207.008 60.456C208.16 59.272 208.736 57.656 208.736 55.608ZM221.25 55.56C221.25 52.808 221.762 50.392 222.786 48.312C223.842 46.232 225.266 44.632 227.058 43.512C228.85 42.392 230.85 41.832 233.058 41.832C234.946 41.832 236.594 42.216 238.002 42.984C239.442 43.752 240.546 44.76 241.314 46.008V42.216H249.522V69H241.314V65.208C240.514 66.456 239.394 67.464 237.954 68.232C236.546 69 234.898 69.384 233.01 69.384C230.834 69.384 228.85 68.824 227.058 67.704C225.266 66.552 223.842 64.936 222.786 62.856C221.762 60.744 221.25 58.312 221.25 55.56ZM241.314 55.608C241.314 53.56 240.738 51.944 239.586 50.76C238.466 49.576 237.09 48.984 235.458 48.984C233.826 48.984 232.434 49.576 231.282 50.76C230.162 51.912 229.602 53.512 229.602 55.56C229.602 57.608 230.162 59.24 231.282 60.456C232.434 61.64 233.826 62.232 235.458 62.232C237.09 62.232 238.466 61.64 239.586 60.456C240.738 59.272 241.314 57.656 241.314 55.608ZM263.668 46.68C264.628 45.208 265.828 44.056 267.268 43.224C268.708 42.36 270.308 41.928 272.068 41.928V50.616H269.812C267.764 50.616 266.228 51.064 265.204 51.96C264.18 52.824 263.668 54.36 263.668 56.568V69H255.46V42.216H263.668V46.68Z" fill="white"/>
</svg>
