<svg width="556" height="801" viewBox="0 0 556 801" fill="none" xmlns="http://www.w3.org/2000/svg">
<path d="M267.387 781.427L267.385 781.425C262.058 774.183 196.507 684.609 132.309 578.488C100.207 525.422 68.5023 468.314 44.8384 415.352C21.0974 362.218 5.74902 313.896 5.74902 278.182C5.74902 127.862 128.047 5.54688 278.362 5.54688C428.683 5.54688 551 127.862 551 278.182C551 313.896 535.652 362.218 511.911 415.352C488.248 468.314 456.544 525.422 424.442 578.488C360.245 684.61 294.694 774.184 289.365 781.424L289.362 781.428L279.367 795.039C279.365 795.041 279.364 795.042 279.363 795.044C279.121 795.368 278.763 795.547 278.362 795.547C277.989 795.547 277.628 795.366 277.403 795.059L277.396 795.049L267.387 781.427ZM382.811 278.182C382.811 220.575 335.972 173.734 278.362 173.734C220.784 173.734 173.914 220.574 173.914 278.182C173.914 335.762 220.785 382.631 278.362 382.631C335.971 382.631 382.811 335.761 382.811 278.182Z" fill="black" stroke="white" stroke-width="10"/>
<circle cx="278.375" cy="273.564" r="129.644" fill="white"/>
</svg>
